<mxfile host="app.diagrams.net" modified="2021-06-07T08:26:53.074Z" agent="5.0 (Windows NT 10.0; Win64; x64) AppleWebKit/537.36 (KHTML, like Gecko) Chrome/91.0.4472.77 Safari/537.36" etag="Ed9RQlaNNohsXKBnb5jk" version="14.7.6" type="github">
  <diagram id="jNIdjeSoIugJYhoh4bg0" name="Page-1">
    <mxGraphModel dx="884" dy="1366" grid="1" gridSize="10" guides="1" tooltips="1" connect="1" arrows="1" fold="1" page="1" pageScale="1" pageWidth="827" pageHeight="1169" math="0" shadow="0">
      <root>
        <mxCell id="0" />
        <mxCell id="1" parent="0" />
        <mxCell id="83sHifAayFHs6LnQgk7p-9" value="Server" style="whiteSpace=wrap;html=1;verticalAlign=top;" vertex="1" parent="1">
          <mxGeometry x="20" y="340" width="780" height="440" as="geometry" />
        </mxCell>
        <mxCell id="83sHifAayFHs6LnQgk7p-50" value="" style="rounded=0;whiteSpace=wrap;html=1;shadow=0;labelBackgroundColor=none;fillColor=#dae8fc;strokeColor=#6c8ebf;" vertex="1" parent="1">
          <mxGeometry x="400" y="375" width="376" height="380" as="geometry" />
        </mxCell>
        <mxCell id="83sHifAayFHs6LnQgk7p-7" value="" style="edgeStyle=orthogonalEdgeStyle;rounded=0;orthogonalLoop=1;jettySize=auto;html=1;" edge="1" parent="1" source="83sHifAayFHs6LnQgk7p-2" target="83sHifAayFHs6LnQgk7p-6">
          <mxGeometry relative="1" as="geometry" />
        </mxCell>
        <mxCell id="83sHifAayFHs6LnQgk7p-2" value="Actor" style="shape=umlActor;verticalLabelPosition=bottom;verticalAlign=top;html=1;outlineConnect=0;" vertex="1" parent="1">
          <mxGeometry x="50" y="195" width="30" height="60" as="geometry" />
        </mxCell>
        <mxCell id="83sHifAayFHs6LnQgk7p-6" value="Application" style="whiteSpace=wrap;html=1;verticalAlign=top;" vertex="1" parent="1">
          <mxGeometry x="140" y="150.63" width="520" height="148.75" as="geometry" />
        </mxCell>
        <mxCell id="83sHifAayFHs6LnQgk7p-8" value="검색 모듈" style="rounded=0;whiteSpace=wrap;html=1;fillColor=#dae8fc;strokeColor=#6c8ebf;" vertex="1" parent="1">
          <mxGeometry x="160" y="190" width="150" height="80" as="geometry" />
        </mxCell>
        <mxCell id="83sHifAayFHs6LnQgk7p-10" value="찜 목록 조회 모듈" style="rounded=0;whiteSpace=wrap;html=1;fillColor=#dae8fc;strokeColor=#6c8ebf;" vertex="1" parent="1">
          <mxGeometry x="335" y="190" width="140" height="80" as="geometry" />
        </mxCell>
        <mxCell id="83sHifAayFHs6LnQgk7p-11" value="주문 목록 조회 모듈" style="rounded=0;whiteSpace=wrap;html=1;fillColor=#dae8fc;strokeColor=#6c8ebf;" vertex="1" parent="1">
          <mxGeometry x="500" y="190" width="140" height="80" as="geometry" />
        </mxCell>
        <mxCell id="83sHifAayFHs6LnQgk7p-19" value="고객 Table" style="swimlane;fontStyle=1;childLayout=stackLayout;horizontal=1;startSize=26;horizontalStack=0;resizeParent=1;resizeParentMax=0;resizeLast=0;collapsible=1;marginBottom=0;fillColor=#f8cecc;strokeColor=#b85450;" vertex="1" parent="1">
          <mxGeometry x="596" y="425" width="100" height="130" as="geometry" />
        </mxCell>
        <mxCell id="83sHifAayFHs6LnQgk7p-20" value="user_ID" style="text;strokeColor=#d6b656;fillColor=#fff2cc;align=left;verticalAlign=top;spacingLeft=4;spacingRight=4;overflow=hidden;rotatable=0;points=[[0,0.5],[1,0.5]];portConstraint=eastwest;shadow=0;labelBackgroundColor=none;fontStyle=5" vertex="1" parent="83sHifAayFHs6LnQgk7p-19">
          <mxGeometry y="26" width="100" height="26" as="geometry" />
        </mxCell>
        <mxCell id="83sHifAayFHs6LnQgk7p-36" value="user_Passwd" style="text;strokeColor=#d6b656;fillColor=#fff2cc;align=left;verticalAlign=top;spacingLeft=4;spacingRight=4;overflow=hidden;rotatable=0;points=[[0,0.5],[1,0.5]];portConstraint=eastwest;fontStyle=1" vertex="1" parent="83sHifAayFHs6LnQgk7p-19">
          <mxGeometry y="52" width="100" height="26" as="geometry" />
        </mxCell>
        <mxCell id="83sHifAayFHs6LnQgk7p-37" value="user_Name" style="text;strokeColor=#d6b656;fillColor=#fff2cc;align=left;verticalAlign=top;spacingLeft=4;spacingRight=4;overflow=hidden;rotatable=0;points=[[0,0.5],[1,0.5]];portConstraint=eastwest;fontStyle=1" vertex="1" parent="83sHifAayFHs6LnQgk7p-19">
          <mxGeometry y="78" width="100" height="26" as="geometry" />
        </mxCell>
        <mxCell id="83sHifAayFHs6LnQgk7p-22" value="user_Address" style="text;strokeColor=#d6b656;fillColor=#fff2cc;align=left;verticalAlign=top;spacingLeft=4;spacingRight=4;overflow=hidden;rotatable=0;points=[[0,0.5],[1,0.5]];portConstraint=eastwest;fontStyle=1" vertex="1" parent="83sHifAayFHs6LnQgk7p-19">
          <mxGeometry y="104" width="100" height="26" as="geometry" />
        </mxCell>
        <mxCell id="83sHifAayFHs6LnQgk7p-44" style="edgeStyle=orthogonalEdgeStyle;rounded=0;orthogonalLoop=1;jettySize=auto;html=1;" edge="1" parent="1" source="83sHifAayFHs6LnQgk7p-25">
          <mxGeometry relative="1" as="geometry">
            <mxPoint x="484" y="628.0000000000002" as="sourcePoint" />
            <mxPoint x="696" y="457" as="targetPoint" />
            <Array as="points">
              <mxPoint x="434" y="628" />
              <mxPoint x="434" y="405" />
              <mxPoint x="724" y="405" />
              <mxPoint x="724" y="457" />
            </Array>
          </mxGeometry>
        </mxCell>
        <mxCell id="83sHifAayFHs6LnQgk7p-23" value="주문 Table" style="swimlane;fontStyle=1;childLayout=stackLayout;horizontal=1;startSize=26;horizontalStack=0;resizeParent=1;resizeParentMax=0;resizeLast=0;collapsible=1;marginBottom=0;fillColor=#f8cecc;strokeColor=#b85450;" vertex="1" parent="1">
          <mxGeometry x="486" y="589" width="100" height="156" as="geometry" />
        </mxCell>
        <mxCell id="83sHifAayFHs6LnQgk7p-25" value="order_user_ID" style="text;strokeColor=#d6b656;fillColor=#fff2cc;align=left;verticalAlign=top;spacingLeft=4;spacingRight=4;overflow=hidden;rotatable=0;points=[[0,0.5],[1,0.5]];portConstraint=eastwest;fontStyle=1" vertex="1" parent="83sHifAayFHs6LnQgk7p-23">
          <mxGeometry y="26" width="100" height="26" as="geometry" />
        </mxCell>
        <mxCell id="83sHifAayFHs6LnQgk7p-39" value="order_item_ID" style="text;strokeColor=#d6b656;fillColor=#fff2cc;align=left;verticalAlign=top;spacingLeft=4;spacingRight=4;overflow=hidden;rotatable=0;points=[[0,0.5],[1,0.5]];portConstraint=eastwest;fontStyle=1" vertex="1" parent="83sHifAayFHs6LnQgk7p-23">
          <mxGeometry y="52" width="100" height="26" as="geometry" />
        </mxCell>
        <mxCell id="83sHifAayFHs6LnQgk7p-40" value="order_num" style="text;strokeColor=#d6b656;fillColor=#fff2cc;align=left;verticalAlign=top;spacingLeft=4;spacingRight=4;overflow=hidden;rotatable=0;points=[[0,0.5],[1,0.5]];portConstraint=eastwest;fontStyle=1" vertex="1" parent="83sHifAayFHs6LnQgk7p-23">
          <mxGeometry y="78" width="100" height="26" as="geometry" />
        </mxCell>
        <mxCell id="83sHifAayFHs6LnQgk7p-38" value="order_address" style="text;strokeColor=#d6b656;fillColor=#fff2cc;align=left;verticalAlign=top;spacingLeft=4;spacingRight=4;overflow=hidden;rotatable=0;points=[[0,0.5],[1,0.5]];portConstraint=eastwest;fontStyle=1" vertex="1" parent="83sHifAayFHs6LnQgk7p-23">
          <mxGeometry y="104" width="100" height="26" as="geometry" />
        </mxCell>
        <mxCell id="83sHifAayFHs6LnQgk7p-26" value="order_date" style="text;strokeColor=#d6b656;fillColor=#fff2cc;align=left;verticalAlign=top;spacingLeft=4;spacingRight=4;overflow=hidden;rotatable=0;points=[[0,0.5],[1,0.5]];portConstraint=eastwest;fontStyle=1" vertex="1" parent="83sHifAayFHs6LnQgk7p-23">
          <mxGeometry y="130" width="100" height="26" as="geometry" />
        </mxCell>
        <mxCell id="83sHifAayFHs6LnQgk7p-27" value="찜 Table" style="swimlane;fontStyle=1;childLayout=stackLayout;horizontal=1;startSize=26;horizontalStack=0;resizeParent=1;resizeParentMax=0;resizeLast=0;collapsible=1;marginBottom=0;fillColor=#f8cecc;strokeColor=#b85450;" vertex="1" parent="1">
          <mxGeometry x="596" y="641" width="100" height="104" as="geometry" />
        </mxCell>
        <mxCell id="83sHifAayFHs6LnQgk7p-28" value="like_user_ID&#xa;" style="text;strokeColor=#d6b656;fillColor=#fff2cc;align=left;verticalAlign=top;spacingLeft=4;spacingRight=4;overflow=hidden;rotatable=0;points=[[0,0.5],[1,0.5]];portConstraint=eastwest;shadow=0;labelBackgroundColor=none;fontStyle=1" vertex="1" parent="83sHifAayFHs6LnQgk7p-27">
          <mxGeometry y="26" width="100" height="26" as="geometry" />
        </mxCell>
        <mxCell id="83sHifAayFHs6LnQgk7p-29" value="like_item_ID" style="text;strokeColor=#d6b656;fillColor=#fff2cc;align=left;verticalAlign=top;spacingLeft=4;spacingRight=4;overflow=hidden;rotatable=0;points=[[0,0.5],[1,0.5]];portConstraint=eastwest;fontStyle=1" vertex="1" parent="83sHifAayFHs6LnQgk7p-27">
          <mxGeometry y="52" width="100" height="26" as="geometry" />
        </mxCell>
        <mxCell id="83sHifAayFHs6LnQgk7p-30" value="like_date" style="text;strokeColor=#d6b656;fillColor=#fff2cc;align=left;verticalAlign=top;spacingLeft=4;spacingRight=4;overflow=hidden;rotatable=0;points=[[0,0.5],[1,0.5]];portConstraint=eastwest;fontStyle=1" vertex="1" parent="83sHifAayFHs6LnQgk7p-27">
          <mxGeometry y="78" width="100" height="26" as="geometry" />
        </mxCell>
        <mxCell id="83sHifAayFHs6LnQgk7p-31" value="의상 Table" style="swimlane;fontStyle=1;childLayout=stackLayout;horizontal=1;startSize=26;horizontalStack=0;resizeParent=1;resizeParentMax=0;resizeLast=0;collapsible=1;marginBottom=0;fillColor=#f8cecc;strokeColor=#b85450;" vertex="1" parent="1">
          <mxGeometry x="486" y="425" width="100" height="104" as="geometry" />
        </mxCell>
        <mxCell id="83sHifAayFHs6LnQgk7p-32" value="Item_ID" style="text;align=left;verticalAlign=top;spacingLeft=4;spacingRight=4;overflow=hidden;rotatable=0;points=[[0,0.5],[1,0.5]];portConstraint=eastwest;shadow=0;labelBackgroundColor=none;rounded=0;fontStyle=5;fillColor=#fff2cc;strokeColor=#d6b656;" vertex="1" parent="83sHifAayFHs6LnQgk7p-31">
          <mxGeometry y="26" width="100" height="26" as="geometry" />
        </mxCell>
        <mxCell id="83sHifAayFHs6LnQgk7p-33" value="Item_name" style="text;strokeColor=#d6b656;fillColor=#fff2cc;align=left;verticalAlign=top;spacingLeft=4;spacingRight=4;overflow=hidden;rotatable=0;points=[[0,0.5],[1,0.5]];portConstraint=eastwest;fontStyle=1" vertex="1" parent="83sHifAayFHs6LnQgk7p-31">
          <mxGeometry y="52" width="100" height="26" as="geometry" />
        </mxCell>
        <mxCell id="83sHifAayFHs6LnQgk7p-34" value="Item_Price" style="text;strokeColor=#d6b656;fillColor=#fff2cc;align=left;verticalAlign=top;spacingLeft=4;spacingRight=4;overflow=hidden;rotatable=0;points=[[0,0.5],[1,0.5]];portConstraint=eastwest;fontStyle=1" vertex="1" parent="83sHifAayFHs6LnQgk7p-31">
          <mxGeometry y="78" width="100" height="26" as="geometry" />
        </mxCell>
        <mxCell id="83sHifAayFHs6LnQgk7p-46" style="edgeStyle=orthogonalEdgeStyle;rounded=0;orthogonalLoop=1;jettySize=auto;html=1;entryX=-0.001;entryY=0.686;entryDx=0;entryDy=0;entryPerimeter=0;" edge="1" parent="1" source="83sHifAayFHs6LnQgk7p-39" target="83sHifAayFHs6LnQgk7p-32">
          <mxGeometry relative="1" as="geometry">
            <Array as="points">
              <mxPoint x="416" y="654" />
              <mxPoint x="416" y="469" />
            </Array>
          </mxGeometry>
        </mxCell>
        <mxCell id="83sHifAayFHs6LnQgk7p-47" style="edgeStyle=orthogonalEdgeStyle;rounded=0;orthogonalLoop=1;jettySize=auto;html=1;entryX=1;entryY=0.5;entryDx=0;entryDy=0;" edge="1" parent="1" source="83sHifAayFHs6LnQgk7p-28" target="83sHifAayFHs6LnQgk7p-20">
          <mxGeometry relative="1" as="geometry">
            <Array as="points">
              <mxPoint x="726" y="680" />
              <mxPoint x="726" y="464" />
            </Array>
          </mxGeometry>
        </mxCell>
        <mxCell id="83sHifAayFHs6LnQgk7p-48" style="edgeStyle=orthogonalEdgeStyle;rounded=0;orthogonalLoop=1;jettySize=auto;html=1;exitX=1;exitY=0.5;exitDx=0;exitDy=0;" edge="1" parent="1" source="83sHifAayFHs6LnQgk7p-29">
          <mxGeometry relative="1" as="geometry">
            <mxPoint x="486" y="475" as="targetPoint" />
            <Array as="points">
              <mxPoint x="736" y="706" />
              <mxPoint x="736" y="415" />
              <mxPoint x="446" y="415" />
              <mxPoint x="446" y="475" />
            </Array>
          </mxGeometry>
        </mxCell>
        <mxCell id="83sHifAayFHs6LnQgk7p-51" value="&lt;font style=&quot;font-size: 20px&quot;&gt;&lt;b&gt;DB&lt;/b&gt;&lt;/font&gt;" style="text;html=1;strokeColor=none;fillColor=none;align=center;verticalAlign=middle;whiteSpace=wrap;rounded=0;shadow=0;labelBackgroundColor=none;" vertex="1" parent="1">
          <mxGeometry x="568" y="379" width="40" height="20" as="geometry" />
        </mxCell>
        <mxCell id="83sHifAayFHs6LnQgk7p-52" value="의상 추출 모듈" style="rounded=0;whiteSpace=wrap;html=1;fillColor=#dae8fc;strokeColor=#6c8ebf;" vertex="1" parent="1">
          <mxGeometry x="60" y="399" width="290" height="80" as="geometry" />
        </mxCell>
        <mxCell id="83sHifAayFHs6LnQgk7p-53" value="의상 검색 모듈" style="rounded=0;whiteSpace=wrap;html=1;fillColor=#dae8fc;strokeColor=#6c8ebf;" vertex="1" parent="1">
          <mxGeometry x="60" y="520" width="290" height="80" as="geometry" />
        </mxCell>
        <mxCell id="83sHifAayFHs6LnQgk7p-54" value="DB Query 모듈" style="rounded=0;whiteSpace=wrap;html=1;fillColor=#dae8fc;strokeColor=#6c8ebf;" vertex="1" parent="1">
          <mxGeometry x="60" y="653" width="290" height="80" as="geometry" />
        </mxCell>
      </root>
    </mxGraphModel>
  </diagram>
</mxfile>
